<svg xmlns="http://www.w3.org/2000/svg" width="10" height="10"><path d="M1.056 1.2h7.806v1.275H1.056zm3.19 8.052h1.427v.088H4.246z" fill="none"/><path d="M4.892 5.35L3.196 3.404s-.258-.231.022-.231h.955V.338S4.135.2 4.355.2H5.7c.157 0 .154.116.154.116v2.797h.882c.34 0 .085.242.085.242l-1.645 2.01c-.145.139-.284-.016-.284-.016z" fill="#2074bd"/><path d="M2.107 3.242h5.706V6.1H2.107z" fill="none"/><rect width="9.151" height=".769" x=".424" y="5.515" ry=".385" fill="#2074bd"/><text x=".285" y="9.703" font-size="4.207" letter-spacing="0" word-spacing="0" font-family="'Bell MT'" fill="#2074bd" stroke-width=".351"><tspan x=".285" y="9.703">MSD</tspan></text></svg>